<?xml version="1.0" encoding="UTF-8"?>
<svg xmlns="http://www.w3.org/2000/svg" version="1.1" viewBox="0 0 4943.6 592.5">
  <!-- Generator: Adobe Illustrator 30.5.1, SVG Export Plug-In . SVG Version: 2.1.4 Build 3)  -->
  <defs>
    <style>
      .st0 {
        fill: #08c29d;
      }

      .st1 {
        fill: #065ba1;
      }

      .st2 {
        fill: #0a375b;
      }

      .st3 {
        fill: #91aec1;
      }
    </style>
  </defs>
  <g id="Layer_22">
    <path class="st0" d="M146.6,52.3l93.8,93.8-85.9,29.8c-8.9,3.1-18.7.8-25.3-5.8l-50.2-50.2,67.6-67.6Z"/>
  </g>
  <g id="Layer_21">
    <polygon class="st0" points="437.6 24.7 389.3 205 312.9 121.1 345.3 0 437.6 24.7"/>
  </g>
  <g id="Layer_19">
    <polygon class="st0" points="474.1 298.1 401.6 218.5 583.6 170.2 608.1 262.6 474.1 298.1"/>
  </g>
  <g id="Layer_3">
    <path class="st1" d="M274.8,592.5l-96.9-26,56-208.9-207.9,55.7L0,316.4l282.6-75.7c5.7-1.5,11.8.1,16,4.3l47.9,47.9c4.2,4.2,5.8,10.3,4.3,16l-76,283.6Z"/>
  </g>
  <g id="Layer_2">
    <path class="st0" d="M456.8,363.6l96.7,97.2-67.8,67.4-51.1-51.4c-4-4-5.5-9.8-4-15.2l26.3-98Z"/>
  </g>
  <g id="Layer_18">
    <path class="st2" d="M881.4,468.1c-21,0-40.7-3.7-59.1-11.2-18.4-7.4-34.5-18.4-48.4-32.8-13.9-14.4-24.7-32.1-32.5-53.1-7.8-21-11.7-45-11.7-72s6.6-65.8,19.8-91c13.2-25.2,31.3-44.5,54.2-57.9,23-13.4,48.8-20.2,77.6-20.2s71.5,9.3,94.9,27.8c23.3,18.6,39.1,44.6,47.4,78.1l-55.4,8.8c-6.2-19.2-16.2-34.6-30.2-46.1-14-11.5-31.7-17.2-53.3-17.2-21.8-.3-39.8,4.4-54.2,14.2-14.4,9.8-25.2,23.5-32.5,41.3-7.3,17.7-10.9,38.5-10.9,62.2s3.6,44.4,10.8,61.9c7.2,17.5,18,31.1,32.5,40.9,14.5,9.8,32.6,14.8,54.4,15.1,16.4.2,30.7-2.8,43-8.9,12.3-6.1,22.4-15.3,30.2-27.7,7.8-12.4,13.1-27.9,15.8-46.5h-57.2v-42.6h114.8c.3,2.4.5,5.9.7,10.6.1,4.7.2,7.4.2,8.3,0,30.7-6,57.9-18.1,81.7-12.1,23.8-29.4,42.5-51.9,56-22.5,13.5-49.4,20.3-80.8,20.3Z"/>
  </g>
  <g id="Layer_17">
    <path class="st2" d="M1191.7,216.9c-7.7.5-15.1,2-22.4,4.3-7.3,2.3-13.9,5.5-19.9,9.6-7.1,4.4-13.1,9.9-18.1,16.6-2.3,3-4.3,6.2-6.2,9.5v-38.9h-47.9v243.5h54.5v-123.8c0-9.3,1.1-18,3.4-26,2.3-8,5.7-15.2,10.5-21.5s10.8-11.5,18.3-15.6c7.5-4.5,15.9-7.1,25.3-7.9,9.4-.8,17.7,0,24.9,2v-50.7c-7.2-1.2-14.6-1.5-22.3-1Z"/>
  </g>
  <g id="Layer_16">
    <path class="st2" d="M1450.6,282.7c-.9-8.9-3.5-17.7-7.9-26.3-8-16.1-20.1-27.6-36.6-34.7-16.4-7.1-35.4-10.6-57.1-10.6s-51.4,6.2-68.3,18.7c-16.9,12.5-28.3,29-34.3,49.6l49.5,15.6c4.1-12.5,11.2-21.3,21.4-26.4,10.2-5.1,20.8-7.7,31.7-7.7,18.2,0,31.1,4,38.7,11.9,6.4,6.6,10,16.3,11,29.1-9.8,1.5-19.4,2.8-28.7,4.2-15.4,2.2-29.6,4.5-42.8,7.1-13.1,2.6-24.6,5.4-34.3,8.6-12.9,4.4-23.4,10-31.5,16.8-8.1,6.8-14.1,15-18,24.3-3.9,9.4-5.9,20-5.9,31.7s3.1,25.6,9.3,36.7c6.2,11.1,15.4,20,27.6,26.7s27,10,44.6,10,40.2-4.1,54.8-12.3c11.3-6.3,21.4-15.4,30.5-27.3v32.8h47.5v-149.5c0-10.5-.4-20.2-1.3-29.2ZM1397.6,360.7c-.4,8.9-2,16.9-4.8,23.8-1.8,5.6-5.3,11.5-10.5,17.8s-12.1,11.6-20.8,16c-8.7,4.4-19.2,6.5-31.5,6.5s-15.7-1.4-21.5-4.1c-5.8-2.7-10.2-6.3-13.2-10.9-3-4.6-4.5-9.9-4.5-15.9s1.2-9.8,3.5-13.8c2.3-3.9,5.7-7.4,10-10.4,4.4-3,9.7-5.6,16-7.9,6.4-2.1,13.9-4,22.3-5.7,8.4-1.7,18.5-3.6,30.2-5.5,7.5-1.2,15.9-2.6,25.3-4.1,0,4.1-.2,8.8-.5,14.2Z"/>
  </g>
  <g id="Layer_15">
    <path class="st2" d="M1670.5,136.7v92.9c-.8-.6-1.6-1.2-2.4-1.8-15.7-11.2-35.1-16.8-58.2-16.8s-42.9,5.6-59.9,16.8c-17,11.2-30,26.5-39.3,45.8-9.2,19.3-13.8,41.3-13.8,65.9s4.6,46.2,13.7,65.6c9.2,19.4,22.1,34.7,38.7,46,16.7,11.3,36.2,16.9,58.5,16.9s43.6-5.6,59.6-16.9c3.4-2.4,6.6-5,9.7-7.7v17.9h47.9V136.7h-54.7ZM1671,381.3c-4.1,12-10.7,21.4-19.6,28.1-8.9,6.7-20.7,10-35.2,10s-25.7-3.5-34.9-10.6c-9.2-7.1-15.9-16.6-20.4-28.7-4.4-12.1-6.6-25.6-6.6-40.5s2.3-28.1,6.8-40.2c4.5-12.1,11.5-21.7,20.9-28.9,9.5-7.1,21.5-10.7,36-10.7s25.1,3.3,33.8,10c8.7,6.7,15.1,16,19.2,28,4.1,11.9,6.2,25.9,6.2,41.8s-2.1,29.7-6.2,41.7Z"/>
  </g>
  <g id="Layer_14">
    <path class="st2" d="M1952.2,217.9v125.1c0,14.7-1.7,26.9-5,36.5-3.3,9.6-7.7,17.2-13.2,22.7-5.5,5.5-11.6,9.4-18.3,11.6s-13.6,3.4-20.5,3.4c-12.9,0-23.1-2.8-30.7-8.3-7.6-5.6-13.3-12.7-17.1-21.3-3.8-8.6-6.3-17.7-7.3-27.1-1.1-9.4-1.6-17.8-1.6-25.4v-117.2h-54.9v135.9c0,5.9.5,13.5,1.5,22.9,1,9.4,3.1,19.4,6.4,29.9,3.3,10.5,8.4,20.4,15.3,29.8,6.9,9.3,16.2,17,27.9,23s26.6,9,44.6,9,42-5,57.6-15c8.4-5.4,15.6-11.7,21.8-19v27h47.9v-243.5h-54.5Z"/>
  </g>
  <g id="Layer_13">
    <path class="st2" d="M2163.6,468.1c-30,0-54.4-6.8-73.1-20.3-18.8-13.5-30.2-32.5-34.2-57l55.4-8.6c2.8,12,9.2,21.5,18.9,28.4,9.8,6.9,22.1,10.4,36.9,10.4s23.1-2.6,30.3-7.8c7.1-5.2,10.7-12.3,10.7-21.3s-1.3-10-3.9-13.4c-2.6-3.4-8.4-6.6-17.2-9.8-8.9-3.2-22.4-7.1-40.7-11.9-20.4-5.4-36.6-11.2-48.6-17.5-12-6.2-20.6-13.6-25.9-22.2-5.3-8.6-7.9-18.9-7.9-31.1s4-28.4,11.9-39.7c8-11.3,19.1-19.9,33.3-26,14.3-6.1,31.1-9.1,50.4-9.1s35.7,2.9,50.3,8.8c14.6,5.9,26.4,14.2,35.4,25,9,10.8,14.6,23.5,16.7,38.1l-55.4,9.9c-1.3-10.4-6-18.6-14.1-24.6-8-6-18.7-9.4-32.1-10.1-12.8-.8-23,1.2-30.8,5.7-7.8,4.6-11.7,11-11.7,19.3s1.6,8.6,4.7,11.9c3.2,3.3,9.5,6.6,19,9.9,9.5,3.3,23.7,7.4,42.6,12.2,19.4,5,34.8,10.6,46.5,17,11.6,6.4,20,14,25.2,22.9,5.2,8.9,7.8,19.6,7.8,32.2,0,24.5-8.9,43.7-26.7,57.7-17.8,14-42.4,21-73.7,21Z"/>
  </g>
  <g id="Layer_12">
    <path class="st3" d="M2519.8,471.9c-31.1,0-57.6-6.9-79.3-20.7-21.7-13.8-38.3-32.9-49.6-57.4-11.4-24.5-17.1-52.9-17.1-85.1s5.7-60.6,17.1-85.1c11.4-24.5,27.9-43.7,49.6-57.4,21.7-13.8,48.2-20.7,79.3-20.7s66,9.2,89.4,27.6c23.4,18.4,39.5,43.2,48.3,74.4l-39.3,10.4c-6.4-23.4-17.8-41.8-34.2-55.3-16.4-13.5-37.8-20.2-64.2-20.2s-42.7,5.3-58.2,15.9c-15.5,10.6-27.2,25.4-35,44.4-7.8,19-11.8,41-11.9,65.9-.1,25,3.7,46.9,11.5,65.8s19.6,33.7,35.2,44.4c15.6,10.7,35.1,16,58.4,16s47.8-6.8,64.2-20.3c16.4-13.6,27.8-31.9,34.2-55.2l39.3,10.4c-8.8,31.2-25,56-48.3,74.4-23.4,18.4-53.2,27.6-89.4,27.6Z"/>
  </g>
  <g id="Layer_11">
    <path class="st3" d="M2705.3,465.3V152h123.6c3,0,6.7.1,10.9.3,4.2.2,8.3.7,12.2,1.4,16.9,2.6,31.2,8.5,42.7,17.5,11.5,9.1,20.2,20.5,26,34.2,5.8,13.7,8.7,28.8,8.7,45.4s-2.9,31.9-8.8,45.6-14.6,25.1-26.1,34.1c-11.5,9-25.7,14.8-42.5,17.4-3.9.6-8,1-12.2,1.3-4.2.3-7.8.4-10.9.4h-84.9v115.8h-38.7ZM2744,312.8h83.6c2.8,0,5.9-.1,9.5-.4,3.5-.3,6.9-.8,10.1-1.5,10-2.3,18.1-6.6,24.3-12.7,6.2-6.2,10.8-13.4,13.8-21.8,3-8.3,4.5-16.9,4.5-25.6s-1.5-17.2-4.5-25.6c-3-8.3-7.6-15.6-13.8-21.8-6.2-6.2-14.3-10.4-24.3-12.7-3.2-.7-6.6-1.2-10.1-1.5-3.6-.3-6.7-.4-9.5-.4h-83.6v124Z"/>
  </g>
  <g id="Layer_10">
    <path class="st3" d="M2972.7,465.3V152h96.5c3.2,0,8.8,0,16.7.2,8,.1,15.6.7,22.8,1.7,24.2,3.2,44.4,12,60.7,26.4,16.3,14.4,28.6,32.8,36.8,55.1,8.3,22.3,12.4,46.7,12.4,73.2s-4.1,51.2-12.4,73.4c-8.3,22.3-20.5,40.6-36.8,54.9-16.3,14.4-36.5,23.1-60.7,26.3-7.2,1-14.9,1.6-22.9,1.7-8,.1-13.6.2-16.6.2h-96.5ZM3012.5,428.3h56.7c5.5,0,11.7-.2,18.5-.5,6.8-.4,12.7-1,17.8-1.8,17.1-3.2,30.9-10.4,41.5-21.5,10.6-11.2,18.3-25.1,23.2-41.8,4.9-16.7,7.4-34.7,7.4-54s-2.5-37.9-7.5-54.5c-5-16.6-12.8-30.5-23.5-41.6-10.6-11.1-24.4-18.2-41.2-21.2-5.1-1-11.1-1.7-18-2-7-.3-13-.4-18.2-.4h-56.7v239.4Z"/>
  </g>
  <g id="Layer_9">
    <path class="st3" d="M3466.5,471.9c-22.2,0-42.1-3.8-59.9-11.3-17.7-7.5-32.4-18.3-43.9-32.3-11.5-14-19-30.6-22.5-49.7l40-6.3c5.1,19.7,15.6,35.1,31.6,46.2,16,11.1,34.9,16.6,56.6,16.6s26.7-2.2,38-6.6c11.3-4.4,20.3-10.8,27-19,6.7-8.3,10.1-18.1,10.1-29.4s-1.2-12.8-3.7-17.8c-2.5-5.1-5.7-9.4-9.8-12.8-4.1-3.5-8.7-6.5-13.9-8.9-5.2-2.5-10.6-4.6-16.3-6.3l-79.7-23.7c-8.7-2.5-17.1-5.7-25.2-9.7-8.1-4-15.4-9-21.7-15-6.4-6-11.4-13.3-15.2-21.9-3.8-8.6-5.6-18.6-5.6-30.2,0-18.4,4.8-34.2,14.4-47.4,9.6-13.2,22.7-23.2,39.2-30.1,16.5-6.9,35.1-10.3,55.8-10.3,21,.1,39.8,3.9,56.4,11.2,16.6,7.3,30.3,17.8,41.3,31.4,10.9,13.6,18.3,30,22.1,49l-41.1,7.2c-2.2-12.6-7-23.6-14.4-32.9-7.5-9.3-16.8-16.4-27.9-21.4-11.2-5-23.4-7.6-36.7-7.7-12.7-.1-24.3,1.9-34.5,6.2-10.3,4.3-18.5,10.2-24.5,17.6-6.1,7.5-9.1,16-9.1,25.6s2.8,17.5,8.3,23.3c5.5,5.8,12.3,10.4,20.3,13.8,8,3.4,15.9,6.2,23.6,8.4l59.5,17.2c6.8,1.9,14.7,4.5,23.6,7.8,8.9,3.3,17.6,8,26,14,8.4,6,15.4,14,20.9,23.9,5.5,9.9,8.3,22.4,8.3,37.5s-3,28.5-9,40.3c-6,11.8-14.4,21.6-25.1,29.6-10.7,8-23.2,14-37.4,18.1-14.2,4.1-29.4,6.1-45.6,6.1Z"/>
  </g>
  <g id="Layer_8">
    <path class="st3" d="M3691.2,465.3v-130.3l-105.4-183h45l79.9,138.6,79.7-138.6h45l-105.2,183v130.3h-39.1Z"/>
  </g>
  <g id="Layer_7">
    <path class="st3" d="M3963.8,471.9c-22.2,0-42.1-3.8-59.9-11.3-17.7-7.5-32.4-18.3-43.9-32.3-11.5-14-19-30.6-22.5-49.7l40-6.3c5.1,19.7,15.6,35.1,31.6,46.2,16,11.1,34.9,16.6,56.6,16.6s26.7-2.2,38-6.6c11.3-4.4,20.3-10.8,27-19,6.7-8.3,10.1-18.1,10.1-29.4s-1.2-12.8-3.7-17.8c-2.5-5.1-5.7-9.4-9.8-12.8-4.1-3.5-8.7-6.5-13.9-8.9-5.2-2.5-10.6-4.6-16.3-6.3l-79.7-23.7c-8.7-2.5-17.1-5.7-25.2-9.7-8.1-4-15.4-9-21.7-15-6.4-6-11.4-13.3-15.2-21.9-3.8-8.6-5.6-18.6-5.6-30.2,0-18.4,4.8-34.2,14.4-47.4,9.6-13.2,22.7-23.2,39.2-30.1,16.5-6.9,35.1-10.3,55.8-10.3,21,.1,39.8,3.9,56.4,11.2,16.6,7.3,30.3,17.8,41.3,31.4,10.9,13.6,18.3,30,22.1,49l-41.1,7.2c-2.2-12.6-7-23.6-14.4-32.9-7.5-9.3-16.8-16.4-27.9-21.4-11.2-5-23.4-7.6-36.7-7.7-12.7-.1-24.3,1.9-34.5,6.2-10.3,4.3-18.5,10.2-24.5,17.6-6.1,7.5-9.1,16-9.1,25.6s2.8,17.5,8.3,23.3c5.5,5.8,12.3,10.4,20.3,13.8,8,3.4,15.9,6.2,23.6,8.4l59.5,17.2c6.8,1.9,14.7,4.5,23.6,7.8,8.9,3.3,17.6,8,26,14,8.4,6,15.4,14,20.9,23.9,5.5,9.9,8.3,22.4,8.3,37.5s-3,28.5-9,40.3c-6,11.8-14.4,21.6-25.1,29.6-10.7,8-23.2,14-37.4,18.1-14.2,4.1-29.4,6.1-45.6,6.1Z"/>
  </g>
  <g id="Layer_6">
    <path class="st3" d="M4207.2,465.3V188.8h-106.7v-36.8h252v36.8h-106.7v276.6h-38.7Z"/>
  </g>
  <g id="Layer_5">
    <path class="st3" d="M4387.3,465.3V152h197.7v36.8h-159v98.1h133v36.8h-133v104.9h159v36.8h-197.7Z"/>
  </g>
  <g id="Layer_4">
    <path class="st3" d="M4637.1,465.3V152h35.2l118.2,249.6,117.5-249.6h35.6v313.1h-36.7v-228l-106.2,228.3h-20.6l-106.2-228.3v228.3h-36.7Z"/>
  </g>
</svg>